<svg data-v-423bf9ae="" xmlns="http://www.w3.org/2000/svg" viewBox="0 0 730 90" class="iconLeftSlogan"><!----><!----><!----><g data-v-423bf9ae="" id="1b8d859d-fc31-4306-b2e9-e6f74ba61e2f" fill="#2F190E" transform="matrix(4.363636363636363,0,0,4.363636363636363,163.21510697765785,-15.578181288459078)"><path d="M0.21 14.35L3.19 14.35L3.19 13.57L1.99 13.57L2.76 11.26L6.33 11.26L7.13 13.57L5.92 13.57L5.92 14.35L9.69 14.35L9.69 13.57L8.96 13.57L5.80 4.58L4.10 4.58L0.94 13.57L0.21 13.57ZM4.52 5.95L4.59 5.95L6.09 10.44L3.01 10.44ZM10.51 14.35L14.10 14.35L14.10 13.57L13.16 13.57L13.16 9.27C13.16 8.40 13.94 8.01 14.69 8.01C15.69 8.01 16.13 8.55 16.13 9.70L16.13 13.57L15.19 13.57L15.19 14.35L18.77 14.35L18.77 13.57L17.81 13.57L17.81 9.62C17.81 7.81 17.12 6.90 15.32 6.90C14.13 6.90 13.43 7.57 13.19 8.22L13.12 8.22L13.12 6.90L10.51 7.42L10.51 8.06L11.48 8.25L11.48 13.57L10.51 13.57ZM22.16 14.46C22.97 14.46 23.77 14.32 24.09 14.17L24.09 13.51L22.32 13.51L22.32 7.92L24.09 7.92L24.09 7.07L22.32 7.07L22.32 5.12L21.45 5.12L20.99 6.36C20.80 6.83 20.64 7.07 19.91 7.07L19.67 7.07L19.67 7.92L20.64 7.92L20.64 13.03C20.64 14.03 21.06 14.46 22.16 14.46ZM24.85 14.35L28.43 14.35L28.43 13.57L27.50 13.57L27.50 9.27C27.50 8.40 28.29 8.01 29.02 8.01C30.03 8.01 30.46 8.55 30.46 9.70L30.46 13.57L29.53 13.57L29.53 14.35L33.11 14.35L33.11 13.57L32.14 13.57L32.14 9.62C32.14 7.81 31.46 6.90 29.65 6.90C28.50 6.90 27.82 7.55 27.57 8.19L27.50 8.19L27.50 3.57L24.85 4.09L24.85 4.73L25.82 4.91L25.82 13.57L24.85 13.57ZM37.65 13.65C36.50 13.65 35.97 12.88 35.97 11.73L35.97 9.69C35.97 8.54 36.50 7.77 37.65 7.77C38.79 7.77 39.33 8.54 39.33 9.69L39.33 11.73C39.33 12.88 38.79 13.65 37.65 13.65ZM37.65 14.52C39.75 14.52 41.16 13.06 41.16 10.71C41.16 8.36 39.75 6.90 37.65 6.90C35.55 6.90 34.13 8.36 34.13 10.71C34.13 13.06 35.55 14.52 37.65 14.52ZM42.36 14.35L45.95 14.35L45.95 13.57L45.01 13.57L45.01 9.27C45.01 8.40 45.79 8.01 46.54 8.01C47.54 8.01 47.98 8.55 47.98 9.70L47.98 13.57L47.04 13.57L47.04 14.35L50.62 14.35L50.62 13.57L49.66 13.57L49.66 9.62C49.66 7.81 48.97 6.90 47.17 6.90C45.98 6.90 45.28 7.57 45.04 8.22L44.97 8.22L44.97 6.90L42.36 7.42L42.36 8.06L43.33 8.25L43.33 13.57L42.36 13.57ZM52.68 17.32C53.93 17.32 54.57 16.37 54.99 15.36L58.03 7.87L58.73 7.87L58.73 7.07L56.11 7.07L56.11 7.87L57.02 7.87L55.31 12.60L55.24 12.60L53.47 7.87L54.38 7.87L54.38 7.07L50.95 7.07L50.95 7.87L51.65 7.87L54.43 14.66L54.19 15.26C53.82 16.21 53.37 16.67 52.88 16.67C52.77 16.67 52.70 16.66 52.61 16.63L52.60 16.58C52.74 16.49 52.89 16.27 52.89 15.99C52.89 15.48 52.57 15.11 52.02 15.11C51.42 15.11 51.09 15.48 51.09 16.06C51.09 16.77 51.62 17.32 52.68 17.32ZM60.58 14.52C62.61 14.52 63.57 13.50 63.57 11.79L63.57 5.36L64.61 5.36L64.61 4.58L60.48 4.58L60.48 5.36L61.80 5.36L61.80 12.21C61.80 13.29 61.38 13.76 60.56 13.76C60.33 13.76 60.10 13.73 59.93 13.69L59.93 13.64C60.14 13.55 60.34 13.29 60.34 12.91C60.34 12.39 59.98 12.03 59.43 12.03C58.80 12.03 58.44 12.49 58.44 13.03C58.44 13.90 59.14 14.52 60.58 14.52ZM67.91 14.52C69.23 14.52 69.75 13.89 70.03 13.27L70.10 13.27L70.10 13.30C70.10 14.01 70.50 14.52 71.40 14.52C71.89 14.52 72.35 14.39 72.62 14.24L72.62 13.58L71.65 13.58L71.65 9.27C71.65 7.78 70.70 6.90 68.92 6.90C66.99 6.90 65.97 7.76 65.97 8.64C65.97 9.20 66.33 9.56 66.89 9.56C67.45 9.56 67.82 9.20 67.82 8.64C67.82 8.23 67.58 8.02 67.37 7.92L67.37 7.87C67.62 7.76 67.98 7.67 68.40 7.67C69.48 7.67 69.97 8.29 69.97 9.41L69.97 10.33L68.96 10.33C66.65 10.33 65.67 11.07 65.67 12.49C65.67 13.75 66.44 14.52 67.91 14.52ZM68.59 13.50C67.84 13.50 67.38 13.17 67.38 12.53L67.38 12.28C67.38 11.48 67.86 11.05 69.13 11.05L69.97 11.05L69.97 12.28C69.97 13.13 69.38 13.50 68.59 13.50ZM73.67 14.35L77.22 14.35L77.22 13.57L76.31 13.57L76.31 9.27C76.31 8.41 77.04 8.01 77.80 8.01C78.75 8.01 79.18 8.55 79.18 9.70L79.18 13.57L78.27 13.57L78.27 14.35L81.77 14.35L81.77 13.57L80.86 13.57L80.86 9.27C80.86 8.41 81.59 8.01 82.35 8.01C83.30 8.01 83.73 8.55 83.73 9.70L83.73 13.57L82.82 13.57L82.82 14.35L86.38 14.35L86.38 13.57L85.41 13.57L85.41 9.62C85.41 7.81 84.74 6.90 82.98 6.90C81.72 6.90 81.03 7.62 80.74 8.30L80.68 8.30C80.40 7.38 79.67 6.90 78.41 6.90C77.25 6.90 76.59 7.56 76.34 8.22L76.27 8.22L76.27 6.90L73.67 7.42L73.67 8.06L74.63 8.25L74.63 13.57L73.67 13.57ZM90.90 14.52C92.61 14.52 93.58 13.48 93.93 12.53L93.28 12.15C92.95 12.85 92.32 13.37 91.22 13.37C90.01 13.37 89.21 12.56 89.21 11.16L89.21 10.71L94.08 10.71L94.08 10.30C94.08 8.27 92.83 6.90 90.80 6.90C88.80 6.90 87.39 8.40 87.39 10.71C87.39 12.95 88.66 14.52 90.90 14.52ZM89.21 9.74C89.21 8.44 89.78 7.73 90.82 7.73C91.84 7.73 92.34 8.47 92.34 9.77L92.34 9.94L89.21 9.94ZM98.34 14.52C100.02 14.52 101.08 13.62 101.08 12.28C101.08 10.96 100.30 10.33 98.77 9.98L98.04 9.81C97.29 9.65 96.94 9.28 96.94 8.71C96.94 8.09 97.40 7.77 98.24 7.77C99.29 7.77 99.75 8.13 99.75 8.85L99.75 9.25L100.88 9.25L100.88 7.07L99.75 7.07L99.75 7.73L99.69 7.73C99.54 7.27 98.95 6.90 98.01 6.90C96.45 6.90 95.42 7.71 95.42 9.09C95.42 10.33 96.17 11.06 97.69 11.40L98.48 11.58C99.20 11.75 99.57 12.10 99.57 12.63C99.57 13.34 99.05 13.65 98.06 13.65C96.95 13.65 96.50 13.17 96.50 12.42L96.50 12.17L95.37 12.17L95.37 14.35L96.50 14.35L96.50 13.62L96.56 13.62C96.74 14.07 97.37 14.52 98.34 14.52ZM103.56 14.52C104.24 14.52 104.65 14.04 104.65 13.47L104.65 13.40C104.65 12.82 104.24 12.35 103.56 12.35C102.87 12.35 102.47 12.82 102.47 13.40L102.47 13.47C102.47 14.04 102.87 14.52 103.56 14.52ZM108.92 14.52C110.04 14.52 110.71 13.94 110.99 13.27L111.06 13.27L111.06 14.52L113.71 14L113.71 13.36L112.74 13.17L112.74 3.57L110.10 4.09L110.10 4.73L111.06 4.91L111.06 8.15L110.99 8.15C110.70 7.48 110.04 6.90 108.92 6.90C107.09 6.90 105.92 8.33 105.92 10.71C105.92 13.09 107.09 14.52 108.92 14.52ZM109.45 13.47C108.40 13.47 107.72 12.71 107.72 11.48L107.72 9.94C107.72 8.71 108.40 7.95 109.45 7.95C110.29 7.95 111.06 8.46 111.06 9.30L111.06 12.12C111.06 12.96 110.29 13.47 109.45 13.47ZM118.24 14.52C119.95 14.52 120.92 13.48 121.27 12.53L120.62 12.15C120.29 12.85 119.66 13.37 118.57 13.37C117.35 13.37 116.55 12.56 116.55 11.16L116.55 10.71L121.42 10.71L121.42 10.30C121.42 8.27 120.18 6.90 118.15 6.90C116.14 6.90 114.73 8.40 114.73 10.71C114.73 12.95 116.00 14.52 118.24 14.52ZM116.55 9.74C116.55 8.44 117.12 7.73 118.16 7.73C119.18 7.73 119.69 8.47 119.69 9.77L119.69 9.94L116.55 9.94ZM125.22 14.35L126.50 14.35L129.02 7.87L129.72 7.87L129.72 7.07L127.11 7.07L127.11 7.87L128.02 7.87L126.32 12.77L126.25 12.77L124.49 7.87L125.40 7.87L125.40 7.07L122.00 7.07L122.00 7.87L122.70 7.87Z"></path></g><defs data-v-423bf9ae=""><linearGradient data-v-423bf9ae="" gradientTransform="rotate(25)" id="11c980b1-d001-49ed-a3d0-16f8ac348d3a" x1="0%" y1="0%" x2="100%" y2="0%"><stop data-v-423bf9ae="" offset="0%" style="stop-color: rgb(169, 37, 128); stop-opacity: 1;"></stop><stop data-v-423bf9ae="" offset="100%" style="stop-color: rgb(247, 188, 0); stop-opacity: 1;"></stop></linearGradient></defs><g data-v-423bf9ae="" id="808a0ffe-5439-472e-b1af-7a9386d77c17" transform="matrix(1.4413146365923606,0,0,1.4413146365923606,0.9342681703819693,-26.291860511649986)" stroke="none" fill="url(#11c980b1-d001-49ed-a3d0-16f8ac348d3a)"><path d="M97.938 68.771h-6.316V20.81a2.022 2.022 0 0 0-2.021-2.021H10.399a2.022 2.022 0 0 0-2.021 2.021v47.961H2.062A2.062 2.062 0 0 0 0 70.832v2.084c0 .103.008.204.022.306.527 3.521 3.348 7.447 7.159 7.922.083.01.169.017.252.017l84.51.071h.003c4.404 0 7.604-4.197 8.041-8.085.009-.075.013-.152.013-.23v-2.084a2.062 2.062 0 0 0-2.062-2.062zM12.42 22.831h75.16V68.77H59.985c-.133 0-.262.016-.386.04H41.16a2.07 2.07 0 0 0-.396-.04H12.42V22.831zm79.528 54.276l-84.362-.071c-1.461-.261-3.024-2.16-3.434-4.143h35.086c.702 1.246 2.017 2.085 3.519 2.085H57.99c1.502 0 2.816-.839 3.52-2.085h34.35c-.322 2.033-2.006 4.214-3.912 4.214zM38.84 37.498a2.083 2.083 0 0 0-2.947 0l-8.689 8.689a2.085 2.085 0 0 0 0 2.948l8.689 8.688a2.08 2.08 0 0 0 2.948 0 2.083 2.083 0 0 0 0-2.947l-7.216-7.215 7.216-7.216a2.084 2.084 0 0 0-.001-2.947zm20.521 20.325a2.081 2.081 0 0 0 2.948 0l8.688-8.688a2.085 2.085 0 0 0 0-2.948l-8.688-8.689a2.083 2.083 0 1 0-2.947 2.947l7.215 7.216-7.215 7.215a2.083 2.083 0 0 0-.001 2.947zm-17.568 4.452a2.085 2.085 0 0 0 2.797-.932l12.506-25.011a2.083 2.083 0 0 0-.933-2.796 2.087 2.087 0 0 0-2.797.932L40.861 59.479a2.083 2.083 0 0 0 .932 2.796z"></path></g><!----><g data-v-423bf9ae="" id="6f4ec219-d12a-4d59-894f-492625b24cd1" fill="#2F190E" transform="matrix(0.7289706679924738,0,0,0.7289706679924738,163.73052670712414,58.46915980153785)"><path d="M5.11 10.57C2.86 10.57 1.60 8.93 1.60 6.85C1.60 4.76 2.86 3.12 5.11 3.12C6.64 3.12 7.64 3.85 8.12 4.98L9.23 4.98C8.64 3.29 7.13 2.10 5.03 2.10C2.24 2.10 0.55 4.21 0.55 6.85C0.55 9.48 2.24 11.59 5.03 11.59C7.13 11.59 8.64 10.40 9.23 8.71L8.12 8.71C7.64 9.84 6.64 10.57 5.11 10.57ZM24.23 2.21L24.23 6.33L18.84 6.33L18.84 2.21L17.79 2.21L17.79 11.48L18.84 11.48L18.84 7.35L24.23 7.35L24.23 11.48L25.28 11.48L25.28 2.21ZM38.71 2.21L37.39 2.21L33.46 11.48L34.62 11.48L35.76 8.79L40.35 8.79L41.48 11.48L42.64 11.48ZM36.16 7.83L38.05 3.30L39.94 7.83ZM57.76 2.21L57.76 10.01L52.04 2.21L50.82 2.21L50.82 11.48L51.87 11.48L51.87 3.65L57.60 11.48L58.81 11.48L58.81 2.21ZM72.06 2.10C69.27 2.10 67.49 4.21 67.49 6.85C67.49 9.48 69.20 11.59 72.03 11.59C73.71 11.59 74.80 10.74 75.39 9.84L75.39 11.48L76.36 11.48L76.36 6.55L72.00 6.55L72.00 7.50L75.39 7.50C75.39 9.44 73.79 10.57 72.11 10.57C69.86 10.57 68.54 8.93 68.54 6.85C68.54 4.76 69.89 3.12 72.14 3.12C73.56 3.12 74.56 3.74 75.12 4.73L76.27 4.73C75.59 3.18 74.05 2.10 72.06 2.10ZM86.25 2.21L85.20 2.21L85.20 11.48L86.25 11.48ZM102.47 2.21L102.47 10.01L96.74 2.21L95.52 2.21L95.52 11.48L96.57 11.48L96.57 3.65L102.30 11.48L103.52 11.48L103.52 2.21ZM116.76 2.10C113.97 2.10 112.20 4.21 112.20 6.85C112.20 9.48 113.90 11.59 116.73 11.59C118.41 11.59 119.50 10.74 120.09 9.84L120.09 11.48L121.06 11.48L121.06 6.55L116.70 6.55L116.70 7.50L120.09 7.50C120.09 9.44 118.50 10.57 116.82 10.57C114.56 10.57 113.25 8.93 113.25 6.85C113.25 4.76 114.59 3.12 116.84 3.12C118.26 3.12 119.27 3.74 119.83 4.73L120.97 4.73C120.29 3.18 118.75 2.10 116.76 2.10ZM146.47 2.21L138.95 2.21L138.95 3.22L142.18 3.22L142.18 11.48L143.23 11.48L143.23 3.22L146.47 3.22ZM161.24 2.21L161.24 6.33L155.85 6.33L155.85 2.21L154.80 2.21L154.80 11.48L155.85 11.48L155.85 7.35L161.24 7.35L161.24 11.48L162.29 11.48L162.29 2.21ZM178.37 3.22L178.37 2.21L171.56 2.21L171.56 11.48L178.37 11.48L178.37 10.47L172.61 10.47L172.61 7.35L177.76 7.35L177.76 6.33L172.61 6.33L172.61 3.22ZM202.62 3.70L205.13 11.48L206.32 11.48L209.20 2.21L208.10 2.21L205.72 10.00L203.22 2.21L202.02 2.21L199.53 10.00L197.15 2.21L196.04 2.21L198.93 11.48L200.12 11.48ZM221.48 2.10C218.67 2.10 216.78 4.21 216.78 6.85C216.78 9.48 218.67 11.59 221.48 11.59C224.29 11.59 226.18 9.48 226.18 6.85C226.18 4.21 224.29 2.10 221.48 2.10ZM221.48 10.57C219.23 10.57 217.83 8.93 217.83 6.85C217.83 4.76 219.23 3.12 221.48 3.12C223.73 3.12 225.13 4.76 225.13 6.85C225.13 8.93 223.73 10.57 221.48 10.57ZM235.91 7.92L239.13 7.92L241.37 11.48L242.62 11.48L240.18 7.74C241.22 7.50 242.42 6.90 242.42 5.11C242.42 3.35 241.21 2.21 239.30 2.21L234.86 2.21L234.86 11.48L235.91 11.48ZM235.91 3.21L239.18 3.21C240.49 3.21 241.37 3.93 241.37 5.11C241.37 6.55 240.11 6.93 239.12 6.93L235.91 6.93ZM251.23 2.21L251.23 11.48L257.33 11.48L257.33 10.47L252.28 10.47L252.28 2.21ZM269.60 2.21L265.69 2.21L265.69 11.48L269.60 11.48C271.81 11.48 273.85 9.74 273.85 6.85C273.85 3.95 271.81 2.21 269.60 2.21ZM269.56 10.49L266.74 10.49L266.74 3.21L269.56 3.21C271.53 3.21 272.80 4.86 272.80 6.85C272.80 8.83 271.53 10.49 269.56 10.49ZM293.29 2.21L293.29 3.22L295.25 3.22L295.25 11.48L296.30 11.48L296.30 2.21ZM317.21 2.21L317.21 11.48L323.32 11.48L323.32 10.47L318.26 10.47L318.26 2.21ZM332.72 2.21L331.67 2.21L331.67 11.48L332.72 11.48ZM348.94 2.21L348.94 10.01L343.21 2.21L341.99 2.21L341.99 11.48L343.04 11.48L343.04 3.65L348.77 11.48L349.99 11.48L349.99 2.21ZM366.07 3.22L366.07 2.21L359.25 2.21L359.25 11.48L366.07 11.48L366.07 10.47L360.30 10.47L360.30 7.35L365.46 7.35L365.46 6.33L360.30 6.33L360.30 3.22ZM388.86 2.10C386.05 2.10 384.16 4.21 384.16 6.85C384.16 9.48 386.05 11.59 388.86 11.59C391.68 11.59 393.57 9.48 393.57 6.85C393.57 4.21 391.68 2.10 388.86 2.10ZM388.86 10.57C386.61 10.57 385.21 8.93 385.21 6.85C385.21 4.76 386.61 3.12 388.86 3.12C391.12 3.12 392.52 4.76 392.52 6.85C392.52 8.93 391.12 10.57 388.86 10.57ZM408.94 3.22L408.94 2.21L402.25 2.21L402.25 11.48L403.30 11.48L403.30 7.46L408.32 7.46L408.32 6.44L403.30 6.44L403.30 3.22ZM431.37 10.57C429.11 10.57 427.85 8.93 427.85 6.85C427.85 4.76 429.11 3.12 431.37 3.12C432.89 3.12 433.90 3.85 434.38 4.98L435.48 4.98C434.90 3.29 433.38 2.10 431.28 2.10C428.50 2.10 426.80 4.21 426.80 6.85C426.80 9.48 428.50 11.59 431.28 11.59C433.38 11.59 434.90 10.40 435.48 8.71L434.38 8.71C433.90 9.84 432.89 10.57 431.37 10.57ZM448.10 2.10C445.28 2.10 443.39 4.21 443.39 6.85C443.39 9.48 445.28 11.59 448.10 11.59C450.91 11.59 452.80 9.48 452.80 6.85C452.80 4.21 450.91 2.10 448.10 2.10ZM448.10 10.57C445.84 10.57 444.44 8.93 444.44 6.85C444.44 4.76 445.84 3.12 448.10 3.12C450.35 3.12 451.75 4.76 451.75 6.85C451.75 8.93 450.35 10.57 448.10 10.57ZM465.39 2.21L461.48 2.21L461.48 11.48L465.39 11.48C467.60 11.48 469.64 9.74 469.64 6.85C469.64 3.95 467.60 2.21 465.39 2.21ZM465.35 10.49L462.53 10.49L462.53 3.21L465.35 3.21C467.32 3.21 468.59 4.86 468.59 6.85C468.59 8.83 467.32 10.49 465.35 10.49ZM485.16 3.22L485.16 2.21L478.34 2.21L478.34 11.48L485.16 11.48L485.16 10.47L479.39 10.47L479.39 7.35L484.54 7.35L484.54 6.33L479.39 6.33L479.39 3.22ZM507.99 2.21L506.67 2.21L502.74 11.48L503.90 11.48L505.04 8.79L509.63 8.79L510.76 11.48L511.92 11.48ZM505.44 7.83L507.33 3.30L509.22 7.83ZM525.85 2.21L518.34 2.21L518.34 3.22L521.57 3.22L521.57 11.48L522.62 11.48L522.62 3.22L525.85 3.22ZM548.32 2.21L547.01 2.21L543.07 11.48L544.24 11.48L545.37 8.79L549.96 8.79L551.10 11.48L552.26 11.48ZM545.78 7.83L547.67 3.30L549.56 7.83ZM577.00 2.21L569.48 2.21L569.48 3.22L572.71 3.22L572.71 11.48L573.76 11.48L573.76 3.22L577.00 3.22ZM586.38 2.21L585.33 2.21L585.33 11.48L586.38 11.48ZM603.44 2.21L600.18 6.61L596.86 2.21L595.64 2.21L595.64 11.48L596.69 11.48L596.69 3.81L600.18 8.22L603.61 3.81L603.61 11.48L604.66 11.48L604.66 2.21ZM620.75 3.22L620.75 2.21L613.93 2.21L613.93 11.48L620.75 11.48L620.75 10.47L614.98 10.47L614.98 7.35L620.13 7.35L620.13 6.33L614.98 6.33L614.98 3.22Z"></path></g></svg>